  0
SECTION
  2
HEADER
  9
$ACADVER
  1
AC1009
  9
$DWGCODEPAGE
  3
ansi_1252
  9
$INSBASE
 10
0.0
 20
0.0
 30
0.0
  9
$EXTMIN
 10
238.8484639042933
 20
96.81573358232335
 30
0.0
  9
$EXTMAX
 10
560.3344705053935
 20
499.3691705549116
 30
0.0
  9
$LIMMIN
 10
0.0
 20
0.0
  9
$LIMMAX
 10
863.5999999999999
 20
558.8
  9
$ORTHOMODE
 70
     0
  9
$REGENMODE
 70
     1
  9
$FILLMODE
 70
     1
  9
$QTEXTMODE
 70
     0
  9
$MIRRTEXT
 70
     1
  9
$DRAGMODE
 70
     2
  9
$LTSCALE
 40
1.0
  9
$OSMODE
 70
   511
  9
$ATTMODE
 70
     1
  9
$TEXTSIZE
 40
3.5
  9
$TRACEWID
 40
1.0
  9
$TEXTSTYLE
  7
STANDARD
  9
$CLAYER
  8
0
  9
$CELTYPE
  6
BYLAYER
  9
$CECOLOR
 62
   256
  9
$DIMSCALE
 40
1.0
  9
$DIMASZ
 40
3.302
  9
$DIMEXO
 40
1.0
  9
$DIMDLI
 40
3.75
  9
$DIMRND
 40
0.0
  9
$DIMDLE
 40
0.0
  9
$DIMEXE
 40
1.0
  9
$DIMTP
 40
0.0
  9
$DIMTM
 40
0.0
  9
$DIMTXT
 40
3.5
  9
$DIMCEN
 40
2.5
  9
$DIMTSZ
 40
0.0
  9
$DIMTOL
 70
     0
  9
$DIMLIM
 70
     0
  9
$DIMTIH
 70
     1
  9
$DIMTOH
 70
     1
  9
$DIMSE1
 70
     0
  9
$DIMSE2
 70
     0
  9
$DIMTAD
 70
     1
  9
$DIMZIN
 70
     0
  9
$DIMBLK
  1

  9
$DIMASO
 70
     1
  9
$DIMSHO
 70
     1
  9
$DIMPOST
  1

  9
$DIMAPOST
  1

  9
$DIMALT
 70
     0
  9
$DIMALTD
 70
     3
  9
$DIMALTF
 40
0.0393700787401575
  9
$DIMLFAC
 40
1.0
  9
$DIMTOFL
 70
     1
  9
$DIMTVP
 40
0.0
  9
$DIMTIX
 70
     0
  9
$DIMSOXD
 70
     0
  9
$DIMSAH
 70
     0
  9
$DIMBLK1
  1

  9
$DIMBLK2
  1

  9
$DIMSTYLE
  2
ISO-25
  9
$DIMCLRD
 70
     0
  9
$DIMCLRE
 70
     0
  9
$DIMCLRT
 70
     0
  9
$DIMTFAC
 40
1.0
  9
$DIMGAP
 40
1.524
  9
$LUNITS
 70
     2
  9
$LUPREC
 70
     2
  9
$SKETCHINC
 40
1.0
  9
$FILLETRAD
 40
10.0
  9
$AUNITS
 70
     0
  9
$AUPREC
 70
     2
  9
$MENU
  1
.
  9
$ELEVATION
 40
0.0
  9
$PELEVATION
 40
0.0
  9
$THICKNESS
 40
0.0
  9
$LIMCHECK
 70
     0
  9
$CHAMFERA
 40
0.0
  9
$CHAMFERB
 40
0.0
  9
$SKPOLY
 70
     0
  9
$TDCREATE
 40
2457789.496267199
  9
$TDUPDATE
 40
2457789.503176701
  9
$TDINDWG
 40
0.0067507755
  9
$TDUSRTIMER
 40
2457789.704757245
  9
$USRTIMER
 70
     1
  9
$ANGBASE
 50
0.0
  9
$ANGDIR
 70
     0
  9
$PDMODE
 70
     0
  9
$PDSIZE
 40
-1.0
  9
$PLINEWID
 40
0.0
  9
$COORDS
 70
     1
  9
$SPLFRAME
 70
     0
  9
$SPLINETYPE
 70
     6
  9
$SPLINESEGS
 70
     8
  9
$ATTDIA
 70
     0
  9
$ATTREQ
 70
     1
  9
$HANDLING
 70
     1
  9
$HANDSEED
  5
1B4
  9
$SURFTAB1
 70
     6
  9
$SURFTAB2
 70
     6
  9
$SURFTYPE
 70
     6
  9
$SURFU
 70
     6
  9
$SURFV
 70
     6
  9
$UCSNAME
  2

  9
$UCSORG
 10
0.0
 20
0.0
 30
0.0
  9
$UCSXDIR
 10
1.0
 20
0.0
 30
0.0
  9
$UCSYDIR
 10
0.0
 20
1.0
 30
0.0
  9
$PUCSNAME
  2

  9
$PUCSORG
 10
0.0
 20
0.0
 30
0.0
  9
$PUCSXDIR
 10
1.0
 20
0.0
 30
0.0
  9
$PUCSYDIR
 10
0.0
 20
1.0
 30
0.0
  9
$USERI1
 70
     0
  9
$USERI2
 70
     0
  9
$USERI3
 70
     0
  9
$USERI4
 70
     0
  9
$USERI5
 70
     0
  9
$USERR1
 40
0.0
  9
$USERR2
 40
0.0
  9
$USERR3
 40
0.0
  9
$USERR4
 40
0.0
  9
$USERR5
 40
0.0
  9
$WORLDVIEW
 70
     1
  9
$SHADEDGE
 70
     3
  9
$SHADEDIF
 70
    70
  9
$TILEMODE
 70
     1
  9
$MAXACTVP
 70
    64
  9
$PLIMCHECK
 70
     0
  9
$PEXTMIN
 10
1.000000000000000E+20
 20
1.000000000000000E+20
 30
1.000000000000000E+20
  9
$PEXTMAX
 10
-1.000000000000000E+20
 20
-1.000000000000000E+20
 30
-1.000000000000000E+20
  9
$PLIMMIN
 10
0.0
 20
0.0
  9
$PLIMMAX
 10
0.0
 20
0.0
  9
$UNITMODE
 70
     0
  9
$VISRETAIN
 70
     1
  9
$PLINEGEN
 70
     0
  9
$PSLTSCALE
 70
     1
  0
ENDSEC
  0
SECTION
  2
TABLES
  0
TABLE
  2
VPORT
 70
     1
  0
VPORT
  2
*ACTIVE
 70
     0
 10
0.0
 20
0.0
 11
1.0
 21
1.0
 12
399.5914672048434
 22
298.0924520686175
 13
0.0
 23
0.0
 14
10.0
 24
10.0
 15
10.0
 25
10.0
 16
0.0
 26
0.0
 36
1.0
 17
0.0
 27
0.0
 37
0.0
 40
410.6045057120401
 41
1.752497225305216
 42
50.0
 43
0.0
 44
0.0
 50
0.0
 51
0.0
 71
    16
 72
  2000
 73
     1
 74
     3
 75
     0
 76
     0
 77
     0
 78
     0
  0
ENDTAB
  0
TABLE
  2
LTYPE
 70
     6
  0
LTYPE
  2
CONTINUOUS
 70
     0
  3
Solid line
 72
    65
 73
     0
 40
0.0
  0
LTYPE
  2
HIDDEN
 70
     0
  3
Hidden __ __ __ __ __ __ __ __ __ __ __ __ __ __
 72
    65
 73
     2
 40
1.905
 49
1.27
 49
-0.635
  0
LTYPE
  2
PHANTOM
 70
     0
  3
Phantom ______  __  __  ______  __  __  ______
 72
    65
 73
     6
 40
12.7
 49
6.35
 49
-1.27
 49
1.27
 49
-1.27
 49
1.27
 49
-1.27
  0
LTYPE
  2
CENTER
 70
     0
  3
Center ____ _ ____ _ ____ _ ____ _ ____ _ ____
 72
    65
 73
     4
 40
10.16
 49
6.35
 49
-1.27
 49
1.27
 49
-1.27
  0
LTYPE
  2
CENTERX2
 70
     0
  3
Center (2x) ________  __  ________  __  _____
 72
    65
 73
     4
 40
20.32
 49
12.7
 49
-2.54
 49
2.54
 49
-2.54
  0
LTYPE
  2
DOT2
 70
     0
  3
Dot (.5x) ........................................
 72
    65
 73
     2
 40
0.635
 49
0.0
 49
-0.635
  0
ENDTAB
  0
TABLE
  2
LAYER
 70
     2
  0
LAYER
  2
0
 70
     0
 62
     7
  6
CONTINUOUS
  0
LAYER
  2
FORMAT
 70
     0
 62
     7
  6
CONTINUOUS
  0
ENDTAB
  0
TABLE
  2
STYLE
 70
     5
  0
STYLE
  2
STANDARD
 70
     0
 40
0.0
 41
1.0
 50
0.0
 71
     0
 42
3.5
  3
txt
  4

  0
STYLE
  2
SLDTEXTSTYLE0
 70
     0
 40
0.0
 41
0.75
 50
0.0
 71
     0
 42
3.5
  3
TXT
  4

  0
STYLE
  2
SLDTEXTSTYLE1
 70
     0
 40
0.0
 41
0.6875
 50
0.0
 71
     0
 42
3.5
  3
TXT
  4

  0
STYLE
  2
SLDTEXTSTYLE2
 70
     0
 40
0.0
 41
0.6944444444444444
 50
0.0
 71
     0
 42
3.5
  3
TXT
  4

  0
STYLE
  2
SLDTEXTSTYLE3
 70
     0
 40
0.0
 41
0.7
 50
0.0
 71
     0
 42
3.5
  3
TXT
  4

  0
ENDTAB
  0
TABLE
  2
VIEW
 70
     0
  0
ENDTAB
  0
TABLE
  2
UCS
 70
     0
  0
ENDTAB
  0
TABLE
  2
APPID
 70
     1
  0
APPID
  2
ACAD
 70
     0
  0
ENDTAB
  0
TABLE
  2
DIMSTYLE
 70
     1
  0
DIMSTYLE
  2
ISO-25
 70
     0
  3

  4

  5

  6

  7

 40
1.0
 41
2.5
 42
0.625
 43
3.75
 44
1.25
 45
0.0
 46
0.0
 47
0.0
 48
0.0
140
2.5
141
2.5
142
0.0
143
0.03937007874016
144
1.0
145
0.0
146
1.0
147
0.625
 71
     0
 72
     0
 73
     0
 74
     0
 75
     0
 76
     0
 77
     1
 78
     8
170
     0
171
     3
172
     1
173
     0
174
     0
175
     0
176
     0
177
     0
178
     0
  0
ENDTAB
  0
ENDSEC
  0
SECTION
  2
BLOCKS
  0
BLOCK
  8
0
  2
$MODEL_SPACE
 70
     0
 10
0.0
 20
0.0
 30
0.0
  3
$MODEL_SPACE
  1

  0
ENDBLK
  5
21
  8
0
  0
BLOCK
 67
     1
  8
0
  2
$PAPER_SPACE
 70
     0
 10
0.0
 20
0.0
 30
0.0
  3
$PAPER_SPACE
  1

  0
ENDBLK
  5
1D
 67
     1
  8
0
  0
BLOCK
  8
0
  2
SW_NOTE_0
 70
     0
 10
0.0
 20
0.0
 30
0.0
  3
SW_NOTE_0
  1

  0
TEXT
  5
CD
  8
0
  6
CONTINUOUS
 62
     0
 10
0.0
 20
0.4405392354124755
 30
0.0
 40
1.524
  1
INTERPRET GEOMETRIC
 41
0.75
  7
SLDTEXTSTYLE0
  0
TEXT
  5
CE
  8
0
  6
CONTINUOUS
 62
     0
 10
0.0
 20
-2.083460658625367
 30
0.0
 40
1.524
  1
TOLERANCING PER:
 41
0.75
  7
SLDTEXTSTYLE0
  0
ENDBLK
  5
CC
  8
0
  0
BLOCK
  8
0
  2
SW_NOTE_1
 70
     0
 10
0.0
 20
0.0
 30
0.0
  3
SW_NOTE_1
  1

  0
TEXT
  5
D3
  8
0
  6
CONTINUOUS
 62
     0
 10
0.0
 20
0.4772508383635161
 30
0.0
 40
1.651
  1
DIMENSIONS ARE IN INCHES
 41
0.75
  7
SLDTEXTSTYLE0
  0
TEXT
  5
D4
  8
0
  6
CONTINUOUS
 62
     0
 10
0.0
 20
-2.17374909139241
 30
0.0
 40
1.651
  1
TOLERANCES:
 41
0.75
  7
SLDTEXTSTYLE0
  0
TEXT
  5
D5
  8
0
  6
CONTINUOUS
 62
     0
 10
0.0
 20
-4.824749021148336
 30
0.0
 40
1.651
  1
FRACTIONAL
 41
0.75
  7
SLDTEXTSTYLE0
  0
TEXT
  5
D6
  8
0
  6
CONTINUOUS
 62
     0
 10
13.14666029065847
 20
-4.824749021148336
 30
0.0
 40
1.651
  1
±
 41
0.75
  7
SLDTEXTSTYLE0
  0
TEXT
  5
D7
  8
0
  6
CONTINUOUS
 62
     0
 10
0.0
 20
-7.475748950904262
 30
0.0
 40
1.651
  1
ANGULAR: MACH
 41
0.75
  7
SLDTEXTSTYLE0
  0
TEXT
  5
D8
  8
0
  6
CONTINUOUS
 62
     0
 10
18.37368123233318
 20
-7.475748950904262
 30
0.0
 40
1.651
  1
±
 41
0.75
  7
SLDTEXTSTYLE0
  0
TEXT
  5
D9
  8
0
  6
CONTINUOUS
 62
     0
 10
23.0418835151196
 20
-7.475748950904262
 30
0.0
 40
1.651
  1
BEND
 41
0.75
  7
SLDTEXTSTYLE0
  0
TEXT
  5
DA
  8
0
  6
CONTINUOUS
 62
     0
 10
29.15516868233681
 20
-7.475748950904262
 30
0.0
 40
1.651
  1
±
 41
0.75
  7
SLDTEXTSTYLE0
  0
TEXT
  5
DB
  8
0
  6
CONTINUOUS
 62
     0
 10
0.0
 20
-10.12674888066019
 30
0.0
 40
1.651
  1
TWO PLACE DECIMAL
 41
0.75
  7
SLDTEXTSTYLE0
  0
TEXT
  5
DC
  8
0
  6
CONTINUOUS
 62
     0
 10
24.87764693796635
 20
-10.12674888066019
 30
0.0
 40
1.651
  1
±
 41
0.75
  7
SLDTEXTSTYLE0
  0
TEXT
  5
DD
  8
0
  6
CONTINUOUS
 62
     0
 10
0.0
 20
-12.77774881041612
 30
0.0
 40
1.651
  1
THREE PLACE DECIMAL
 41
0.75
  7
SLDTEXTSTYLE0
  0
TEXT
  5
DE
  8
0
  6
CONTINUOUS
 62
     0
 10
24.73461627960205
 20
-12.77774881041612
 30
0.0
 40
1.651
  1
±
 41
0.75
  7
SLDTEXTSTYLE0
  0
ENDBLK
  5
D2
  8
0
  0
BLOCK
  8
0
  2
SW_NOTE_2
 70
     0
 10
0.0
 20
0.0
 30
0.0
  3
SW_NOTE_2
  1

  0
TEXT
  5
E7
  8
0
  6
CONTINUOUS
 62
     0
 10
0.0
 20
0.4405392354124755
 30
0.0
 40
1.524
  1
THE INFORMATION CONTAINED IN THIS
 41
0.75
  7
SLDTEXTSTYLE0
  0
TEXT
  5
E8
  8
0
  6
CONTINUOUS
 62
     0
 10
0.0
 20
-2.083460658625367
 30
0.0
 40
1.524
  1
DRAWING IS THE SOLE PROPERTY OF
 41
0.75
  7
SLDTEXTSTYLE0
  0
TEXT
  5
E9
  8
0
  6
CONTINUOUS
 62
     0
 10
0.0
 20
-4.60746055266321
 30
0.0
 40
1.524
  1
<INSERT COMPANY NAME HERE>.  ANY
 41
0.75
  7
SLDTEXTSTYLE0
  0
TEXT
  5
EA
  8
0
  6
CONTINUOUS
 62
     0
 10
0.0
 20
-7.131460446701053
 30
0.0
 40
1.524
  1
REPRODUCTION IN PART OR AS A WHOLE
 41
0.75
  7
SLDTEXTSTYLE0
  0
TEXT
  5
EB
  8
0
  6
CONTINUOUS
 62
     0
 10
0.0
 20
-9.655460340738895
 30
0.0
 40
1.524
  1
WITHOUT THE WRITTEN PERMISSION OF
 41
0.75
  7
SLDTEXTSTYLE0
  0
TEXT
  5
EC
  8
0
  6
CONTINUOUS
 62
     0
 10
0.0
 20
-12.17946023477674
 30
0.0
 40
1.524
  1
<INSERT COMPANY NAME HERE> IS
 41
0.75
  7
SLDTEXTSTYLE0
  0
TEXT
  5
ED
  8
0
  6
CONTINUOUS
 62
     0
 10
0.0
 20
-14.70346012881458
 30
0.0
 40
1.524
  1
PROHIBITED.
 41
0.75
  7
SLDTEXTSTYLE0
  0
ENDBLK
  5
E6
  8
0
  0
BLOCK
  8
0
  2
SW_CENTERMARKSYMBOL_0
 70
     0
 10
0.0
 20
0.0
 30
0.0
  3
SW_CENTERMARKSYMBOL_0
  1

  0
LINE
  5
133
  8
0
  6
CONTINUOUS
 62
     0
 10
0.0
 20
0.0
 30
0.0
 11
0.0
 21
2.500000000000002
 31
0.0
  0
LINE
  5
134
  8
0
  6
CONTINUOUS
 62
     0
 10
0.0
 20
0.0
 30
0.0
 11
-2.500000000000002
 21
0.0
 31
0.0
  0
LINE
  5
135
  8
0
  6
CONTINUOUS
 62
     0
 10
0.0
 20
0.0
 30
0.0
 11
0.0
 21
-2.500000000000002
 31
0.0
  0
LINE
  5
136
  8
0
  6
CONTINUOUS
 62
     0
 10
0.0
 20
0.0
 30
0.0
 11
2.500000000000002
 21
0.0
 31
0.0
  0
LINE
  5
137
  8
0
  6
CONTINUOUS
 62
     0
 10
0.0
 20
5.000000000000004
 30
0.0
 11
0.0
 21
15.19999999999999
 31
0.0
  0
LINE
  5
138
  8
0
  6
CONTINUOUS
 62
     0
 10
-5.000000000000004
 20
0.0
 30
0.0
 11
-15.19999999999999
 21
0.0
 31
0.0
  0
LINE
  5
139
  8
0
  6
CONTINUOUS
 62
     0
 10
0.0
 20
-5.000000000000004
 30
0.0
 11
0.0
 21
-15.19999999999999
 31
0.0
  0
LINE
  5
13A
  8
0
  6
CONTINUOUS
 62
     0
 10
5.000000000000004
 20
0.0
 30
0.0
 11
15.19999999999999
 21
0.0
 31
0.0
  0
ENDBLK
  5
132
  8
0
  0
BLOCK
  8
0
  2
SW_CENTERMARKSYMBOL_1
 70
     0
 10
0.0
 20
0.0
 30
0.0
  3
SW_CENTERMARKSYMBOL_1
  1

  0
LINE
  5
13F
  8
0
  6
CONTINUOUS
 62
     0
 10
0.0
 20
0.0
 30
0.0
 11
0.0
 21
2.500000000000002
 31
0.0
  0
LINE
  5
140
  8
0
  6
CONTINUOUS
 62
     0
 10
0.0
 20
0.0
 30
0.0
 11
-2.500000000000002
 21
0.0
 31
0.0
  0
LINE
  5
141
  8
0
  6
CONTINUOUS
 62
     0
 10
0.0
 20
0.0
 30
0.0
 11
0.0
 21
-2.500000000000002
 31
0.0
  0
LINE
  5
142
  8
0
  6
CONTINUOUS
 62
     0
 10
0.0
 20
0.0
 30
0.0
 11
2.500000000000002
 21
0.0
 31
0.0
  0
LINE
  5
143
  8
0
  6
CONTINUOUS
 62
     0
 10
0.0
 20
5.000000000000004
 30
0.0
 11
0.0
 21
5.674999999999986
 31
0.0
  0
LINE
  5
144
  8
0
  6
CONTINUOUS
 62
     0
 10
-5.000000000000004
 20
0.0
 30
0.0
 11
-5.674999999999986
 21
0.0
 31
0.0
  0
LINE
  5
145
  8
0
  6
CONTINUOUS
 62
     0
 10
0.0
 20
-5.000000000000004
 30
0.0
 11
0.0
 21
-5.674999999999986
 31
0.0
  0
LINE
  5
146
  8
0
  6
CONTINUOUS
 62
     0
 10
5.000000000000004
 20
0.0
 30
0.0
 11
5.674999999999986
 21
0.0
 31
0.0
  0
ENDBLK
  5
13E
  8
0
  0
BLOCK
  8
0
  2
SW_CENTERMARKSYMBOL_2
 70
     0
 10
0.0
 20
0.0
 30
0.0
  3
SW_CENTERMARKSYMBOL_2
  1

  0
LINE
  5
14B
  8
0
  6
CONTINUOUS
 62
     0
 10
0.0
 20
0.0
 30
0.0
 11
0.0
 21
2.500000000000002
 31
0.0
  0
LINE
  5
14C
  8
0
  6
CONTINUOUS
 62
     0
 10
0.0
 20
0.0
 30
0.0
 11
-2.500000000000002
 21
0.0
 31
0.0
  0
LINE
  5
14D
  8
0
  6
CONTINUOUS
 62
     0
 10
0.0
 20
0.0
 30
0.0
 11
0.0
 21
-2.500000000000002
 31
0.0
  0
LINE
  5
14E
  8
0
  6
CONTINUOUS
 62
     0
 10
0.0
 20
0.0
 30
0.0
 11
2.500000000000002
 21
0.0
 31
0.0
  0
LINE
  5
14F
  8
0
  6
CONTINUOUS
 62
     0
 10
0.0
 20
5.000000000000004
 30
0.0
 11
0.0
 21
5.674999999999986
 31
0.0
  0
LINE
  5
150
  8
0
  6
CONTINUOUS
 62
     0
 10
-5.000000000000004
 20
0.0
 30
0.0
 11
-5.674999999999986
 21
0.0
 31
0.0
  0
LINE
  5
151
  8
0
  6
CONTINUOUS
 62
     0
 10
0.0
 20
-5.000000000000004
 30
0.0
 11
0.0
 21
-5.674999999999986
 31
0.0
  0
LINE
  5
152
  8
0
  6
CONTINUOUS
 62
     0
 10
5.000000000000004
 20
0.0
 30
0.0
 11
5.674999999999986
 21
0.0
 31
0.0
  0
ENDBLK
  5
14A
  8
0
  0
BLOCK
  8
0
  2
SW_CENTERMARKSYMBOL_3
 70
     0
 10
0.0
 20
0.0
 30
0.0
  3
SW_CENTERMARKSYMBOL_3
  1

  0
LINE
  5
157
  8
0
  6
CONTINUOUS
 62
     0
 10
0.0
 20
0.0
 30
0.0
 11
0.0
 21
2.500000000000002
 31
0.0
  0
LINE
  5
158
  8
0
  6
CONTINUOUS
 62
     0
 10
0.0
 20
0.0
 30
0.0
 11
-2.500000000000002
 21
0.0
 31
0.0
  0
LINE
  5
159
  8
0
  6
CONTINUOUS
 62
     0
 10
0.0
 20
0.0
 30
0.0
 11
0.0
 21
-2.500000000000002
 31
0.0
  0
LINE
  5
15A
  8
0
  6
CONTINUOUS
 62
     0
 10
0.0
 20
0.0
 30
0.0
 11
2.500000000000002
 21
0.0
 31
0.0
  0
LINE
  5
15B
  8
0
  6
CONTINUOUS
 62
     0
 10
0.0
 20
5.000000000000004
 30
0.0
 11
0.0
 21
5.674999999999986
 31
0.0
  0
LINE
  5
15C
  8
0
  6
CONTINUOUS
 62
     0
 10
-5.000000000000004
 20
0.0
 30
0.0
 11
-5.674999999999986
 21
0.0
 31
0.0
  0
LINE
  5
15D
  8
0
  6
CONTINUOUS
 62
     0
 10
0.0
 20
-5.000000000000004
 30
0.0
 11
0.0
 21
-5.675000000000042
 31
0.0
  0
LINE
  5
15E
  8
0
  6
CONTINUOUS
 62
     0
 10
5.000000000000004
 20
0.0
 30
0.0
 11
5.674999999999986
 21
0.0
 31
0.0
  0
ENDBLK
  5
156
  8
0
  0
ENDSEC
  0
SECTION
  2
ENTITIES
  0
CIRCLE
  5
107
  8
0
  6
CONTINUOUS
 62
     7
 10
484.1344705053936
 20
337.6970052581188
 30
0.0
 40
12.69999999999999
  0
CIRCLE
  5
108
  8
0
  6
CONTINUOUS
 62
     7
 10
260.5857073187175
 20
298.419760167663
 30
0.0
 40
3.175000000000068
  0
CIRCLE
  5
109
  8
0
  6
CONTINUOUS
 62
     7
 10
303.1446820604974
 20
200.5408192897648
 30
0.0
 40
3.175000000000011
  0
CIRCLE
  5
10A
  8
0
  6
CONTINUOUS
 62
     7
 10
495.2377596573084
 20
109.5157335823234
 30
0.0
 40
3.175000000000011
  0
ARC
  5
10B
  8
0
  6
CONTINUOUS
 62
     7
 10
330.064196917856
 20
278.3907086290628
 30
0.0
 40
12.7
 50
21.05322103964562
 51
99.96508836562775
  0
LINE
  5
10C
  8
0
  6
CONTINUOUS
 62
     7
 10
303.5742137813606
 20
286.6309858694701
 30
0.0
 11
327.8664863083779
 21
290.899108529809
 31
0.0
  0
ARC
  5
10D
  8
0
  6
CONTINUOUS
 62
     7
 10
305.7719243908384
 20
274.1225859687238
 30
0.0
 40
12.70000000000002
 50
99.96508836562671
 51
203.5000000000016
  0
LINE
  5
10E
  8
0
  6
CONTINUOUS
 62
     7
 10
304.5103478297349
 20
245.1744092716747
 30
0.0
 11
294.1252614461475
 21
269.058472793373
 31
0.0
  0
ARC
  5
10F
  8
0
  6
CONTINUOUS
 62
     7
 10
316.1570107744261
 20
250.2385224470252
 30
0.0
 40
12.70000000000006
 50
203.5000000000003
 51
307.1552761326824
  0
LINE
  5
110
  8
0
  6
CONTINUOUS
 62
     7
 10
343.5074987196321
 20
255.0303201331007
 30
0.0
 11
323.8275209148904
 21
240.1166019679346
 31
0.0
  0
ARC
  5
111
  8
0
  6
CONTINUOUS
 62
     7
 10
335.8369885791678
 20
265.1522406121914
 30
0.0
 40
12.70000000000003
 50
307.1552761326821
 51
26.06714345866325
  0
LINE
  5
112
  8
0
  6
CONTINUOUS
 62
     7
 10
433.831631364217
 20
330.6072680036846
 30
0.0
 11
362.572188562535
 21
301.0906403480778
 31
0.0
  0
ARC
  5
113
  8
0
  6
CONTINUOUS
 62
     7
 10
484.1344705053936
 20
337.6970052581188
 30
0.0
 40
50.8
 50
149.477512185926
 51
188.022487814071
  0
LINE
  5
114
  8
0
  6
CONTINUOUS
 62
     7
 10
385.8342156632056
 20
418.0367478581733
 30
0.0
 11
440.3738319827481
 21
363.4971315386308
 31
0.0
  0
ARC
  5
115
  8
0
  6
CONTINUOUS
 62
     7
 10
484.1344705053936
 20
337.6970052581188
 30
0.0
 40
50.79999999999998
 50
284.4775121859307
 51
120.5224878140621
  0
LINE
  5
116
  8
0
  6
CONTINUOUS
 62
     7
 10
496.8344705053935
 20
210.7426262746347
 30
0.0
 11
496.8344705053935
 21
288.5101167612847
 31
0.0
  0
LINE
  5
117
  8
0
  6
CONTINUOUS
 62
     7
 10
560.3344705053935
 20
185.3064663917372
 30
0.0
 11
560.3344705053935
 21
210.7426262746347
 31
0.0
  0
LINE
  5
118
  8
0
  6
CONTINUOUS
 62
     7
 10
507.9377596573084
 20
109.5157335823234
 30
0.0
 11
507.9377596573084
 21
185.3064663917372
 31
0.0
  0
ARC
  5
119
  8
0
  6
CONTINUOUS
 62
     7
 10
495.2377596573084
 20
109.5157335823234
 30
0.0
 40
12.70000000000005
 50
180.0
 51
0.0
  0
LINE
  5
11A
  8
0
  6
CONTINUOUS
 62
     7
 10
482.5377596573084
 20
109.5157335823234
 30
0.0
 11
482.5377596573084
 21
185.3148315944853
 31
0.0
  0
ARC
  5
11B
  8
0
  6
CONTINUOUS
 62
     7
 10
374.189539281489
 20
214.542638216738
 30
0.0
 40
12.70000000000001
 50
48.24340880669907
 51
127.1552761326811
  0
LINE
  5
11C
  8
0
  6
CONTINUOUS
 62
     7
 10
308.2127264581761
 20
180.4793581792221
 30
0.0
 11
366.5190291410248
 21
224.6645586958286
 31
0.0
  0
ARC
  5
11D
  8
0
  6
CONTINUOUS
 62
     7
 10
300.5422163177117
 20
190.6012786583127
 30
0.0
 40
12.70000000000007
 50
203.5000000000004
 51
307.1552761326824
  0
LINE
  5
11E
  8
0
  6
CONTINUOUS
 62
     7
 10
239.9018009596023
 20
298.2150818321001
 30
0.0
 11
288.8955533730206
 21
185.5371654829622
 31
0.0
  0
ARC
  5
11F
  8
0
  6
CONTINUOUS
 62
     7
 10
251.5484639042933
 20
303.2791950074508
 30
0.0
 40
12.70000000000003
 50
99.96508836562695
 51
203.5000000000014
  0
LINE
  5
120
  8
0
  6
CONTINUOUS
 62
     7
 10
321.2733544799439
 20
328.4243082320477
 30
0.0
 11
249.3507532948155
 21
315.787594908197
 31
0.0
  0
ARC
  5
121
  8
0
  6
CONTINUOUS
 62
     7
 10
319.075643870466
 20
340.9327081327938
 30
0.0
 40
12.69999999999998
 50
279.9650883656284
 51
358.876955691611
  0
LINE
  5
122
  8
0
  6
CONTINUOUS
 62
     7
 10
458.3343442248907
 20
381.4576437807696
 30
0.0
 11
403.3444243459189
 21
436.4475636597415
 31
0.0
  0
ARC
  5
123
  8
0
  6
CONTINUOUS
 62
     7
 10
484.1344705053936
 20
337.6970052581188
 30
0.0
 40
50.80000000000002
 50
216.9775121859309
 51
255.5224878140709
  0
LINE
  5
124
  8
0
  6
CONTINUOUS
 62
     7
 10
372.2923477446083
 20
277.6241002222912
 30
0.0
 11
443.5517905462903
 21
307.1407278778979
 31
0.0
  0
LINE
  5
125
  8
0
  6
CONTINUOUS
 62
     7
 10
471.4344705053936
 20
288.5101167612847
 30
0.0
 11
471.4344705053936
 21
211.379451675562
 31
0.0
  0
ARC
  5
126
  8
0
  6
CONTINUOUS
 62
     7
 10
484.1344705053936
 20
337.6970052581188
 30
0.0
 40
152.3905388663816
 50
228.2434088066997
 51
269.3996578306025
  0
LINE
  5
127
  8
0
  6
CONTINUOUS
 62
     7
 10
430.2938689600045
 20
499.3691705549116
 30
0.0
 11
376.3780870843023
 21
445.4533886792088
 31
0.0
  0
LINE
  5
128
  8
0
  6
CONTINUOUS
 62
     7
 10
448.2799501005467
 20
481.3830894143697
 30
0.0
 11
430.2938689600045
 21
499.3691705549116
 31
0.0
  0
LINE
  5
129
  8
0
  6
CONTINUOUS
 62
     7
 10
507.9377596573084
 20
185.3064663917372
 30
0.0
 11
560.3344705053935
 21
185.3064663917372
 31
0.0
  0
ARC
  5
12A
  8
0
  6
CONTINUOUS
 62
     7
 10
484.1344705053936
 20
337.6970052581188
 30
0.0
 40
152.3905388663817
 50
135.0000000000004
 51
178.8769556916099
  0
ARC
  5
12B
  8
0
  6
CONTINUOUS
 62
     7
 10
484.1344705053936
 20
337.6970052581188
 30
0.0
 40
152.3905388663816
 50
201.0532210396463
 51
206.0671434586641
  0
LINE
  5
12C
  8
0
  6
CONTINUOUS
 62
     7
 10
560.3344705053935
 20
210.7426262746347
 30
0.0
 11
496.8344705053935
 21
210.7426262746347
 31
0.0
  0
LINE
  5
12D
  8
0
  6
CONTINUOUS
 62
     7
 10
403.3444243459189
 20
436.4475636597415
 30
0.0
 11
448.2799501005467
 21
481.3830894143697
 31
0.0
  0
ARC
  5
12E
  8
0
  6
CONTINUOUS
 62
     7
 10
484.1344705053936
 20
337.6970052581188
 30
0.0
 40
126.9543789834842
 50
208.2412397755436
 51
264.2587602244582
  0
ARC
  5
12F
  8
0
  6
CONTINUOUS
 62
     7
 10
484.1344705053936
 20
337.6970052581188
 30
0.0
 40
126.9543789834842
 50
140.7412397755411
 51
196.7587602244583
  0
ENDSEC
  0
EOF
